# xmcd
#
# Track frame offsets:
#	150
#	18907
#	31671
#	44459
#	58056
#	71849
#	88166
#	105698
#	115337
#	130639
#	148142
#	165827
#	177024
#	189577
#	203864
#	221210
#	237339
#
# Disc length: 3257 seconds
#
# Revision: 0
# Processed by: cddbd v1.5.2PL0 Copyright (c) Steve Scherf et al.
# Submitted via: audiograbber 1.83.01
#
DISCID=f20cb711
DTITLE=Santified Grumblers - No Lie
DYEAR=2010
DGENRE=Country
TTITLE0=Stump Grinder
TTITLE1=Mean To My Baby
TTITLE2=9 Bar
TTITLE3=Broke And Dead
TTITLE4=Gary Went To New Orleans
TTITLE5=Jailbird Lovesong
TTITLE6=EZ Ridin Grumblers
TTITLE7=Break Of Day
TTITLE8=Stain On A Wall
TTITLE9=Push Reel
TTITLE10=Keep Your Porch Light Low
TTITLE11=St Louie Zoo
TTITLE12=I Hate You Gin
TTITLE13=SG Blues
TTITLE14=Ramblin Ramblin Ramblin
TTITLE15=No Lie
TTITLE16=Sawin Logs
EXTD=
EXTT0=
EXTT1=
EXTT2=
EXTT3=
EXTT4=
EXTT5=
EXTT6=
EXTT7=
EXTT8=
EXTT9=
EXTT10=
EXTT11=
EXTT12=
EXTT13=
EXTT14=
EXTT15=
EXTT16=
PLAYORDER=
